<?xml version="1.0" encoding="UTF-8" standalone="no"?>
<svg
   xmlns:dc="http://purl.org/dc/elements/1.1/"
   xmlns:cc="http://creativecommons.org/ns#"
   xmlns:rdf="http://www.w3.org/1999/02/22-rdf-syntax-ns#"
   xmlns:svg="http://www.w3.org/2000/svg"
   xmlns="http://www.w3.org/2000/svg"
   xmlns:sodipodi="http://sodipodi.sourceforge.net/DTD/sodipodi-0.dtd"
   xmlns:inkscape="http://www.inkscape.org/namespaces/inkscape"
   sodipodi:docname="BG.svg"
   inkscape:version="1.0 (4035a4fb49, 2020-05-01)"
   id="svg8"
   version="1.1"
   viewBox="0 0 199.76041 137.31876"
   height="137.31876mm"
   width="199.76041mm">
  <defs
     id="defs2" />
  <sodipodi:namedview
     inkscape:window-maximized="1"
     inkscape:window-y="28"
     inkscape:window-x="53"
     inkscape:window-height="1052"
     inkscape:window-width="1867"
     showgrid="false"
     inkscape:document-rotation="0"
     inkscape:current-layer="layer1"
     inkscape:document-units="mm"
     inkscape:cy="477.96778"
     inkscape:cx="294.1806"
     inkscape:zoom="1.4"
     inkscape:pageshadow="2"
     inkscape:pageopacity="0.0"
     borderopacity="1.0"
     bordercolor="#666666"
     pagecolor="#ffffff"
     id="base" />
  <metadata
     id="metadata5">
    <rdf:RDF>
      <cc:Work
         rdf:about="">
        <dc:format>image/svg+xml</dc:format>
        <dc:type
           rdf:resource="http://purl.org/dc/dcmitype/StillImage" />
        <dc:title></dc:title>
      </cc:Work>
    </rdf:RDF>
  </metadata>
  <g
     transform="translate(0.181841,-136.00591)"
     id="layer1"
     inkscape:groupmode="layer"
     inkscape:label="Layer 1">
    <path
       sodipodi:nodetypes="cccccsc"
       d="m 82.628341,261.40457 c 14.00933,3.05614 97.723699,-25.61943 116.966909,-24.02203 l -0.32145,33.98972 -199.76040906,-2e-5 0.30476806,-135.36633 c 9.5636581,10.72624 10.958992,22.86206 14.958898,41.73199 5.561057,26.23482 16.996301,80.72918 67.851284,83.66667"
       style="opacity:0.726193;fill:#83b13f;fill-opacity:1;fill-rule:evenodd;stroke-width:0.264583"
       id="rect847-1-1" />
    <path
       sodipodi:nodetypes="csccccsc"
       d="m 82.93313,263.35698 c 3.385349,0.73852 10.775679,-1.16766 20.38221,-3.14181 30.14743,-6.19533 81.69525,-20.75588 96.28834,-19.54449 l -0.0251,32.65399 -199.760411,-2e-5 V 136.00591 c 9.563678,10.72618 11.26378,24.81447 15.263686,43.6844 5.561057,26.23482 16.996305,80.72918 67.851285,83.66667"
       style="fill:#83b13f;fill-opacity:1;fill-rule:evenodd;stroke-width:0.264583"
       id="rect847-1" />
    <path
       sodipodi:nodetypes="cccccsc"
       d="m 82.93313,263.35698 c 14.00932,3.05614 97.44383,-19.88115 116.68704,-18.28375 l -0.0416,28.25144 -199.760411,-2e-5 V 136.00591 c 9.563678,10.72618 11.26378,24.81447 15.263686,43.6844 5.561057,26.23482 16.996305,80.72918 67.851285,83.66667"
       style="fill:#006694;fill-opacity:1;fill-rule:evenodd;stroke-width:0.264583"
       id="rect847" />
  </g>
</svg>
